<?xml version="1.0" encoding="UTF-8" standalone="no"?><!DOCTYPE svg PUBLIC "-//W3C//DTD SVG 1.1//EN" "http://www.w3.org/Graphics/SVG/1.1/DTD/svg11.dtd"><svg width="100%" height="100%" viewBox="0 0 365 57" version="1.1" xmlns="http://www.w3.org/2000/svg" xmlns:xlink="http://www.w3.org/1999/xlink" xml:space="preserve" xmlns:serif="http://www.serif.com/" style="fill-rule:evenodd;clip-rule:evenodd;stroke-linejoin:round;stroke-miterlimit:2;"><g id="White"><g id="Layer1"><path d="M150.375,55.968c-0.151,0.468 -0.587,0.786 -1.079,0.786c-3.564,0 -17.447,0 -17.447,0c-0.809,0.001 -1.585,-0.297 -2.157,-0.829c-0.572,-0.531 -0.894,-1.253 -0.894,-2.006c0,-9.683 0,-41.343 0,-51.019c0,-0.751 0.321,-1.472 0.892,-2.004c0.572,-0.532 1.346,-0.83 2.154,-0.83c6.548,0 28.886,-0.004 34.998,-0.005c0.363,0 0.704,0.174 0.917,0.467c0.214,0.293 0.274,0.67 0.163,1.015c-0.783,2.427 -2.31,7.166 -2.913,9.034c-0.151,0.468 -0.585,0.785 -1.077,0.786c-4.126,0.007 -22.341,0.04 -22.341,0.04c-0.336,0.001 -0.608,0.254 -0.608,0.567c0,1.545 0,5.824 0,7.371c0,0.151 0.064,0.295 0.179,0.401c0.114,0.106 0.269,0.166 0.431,0.166c2.262,-0.001 15.273,-0.003 18.741,-0.004c0.384,0 0.746,0.169 0.976,0.455c0.231,0.287 0.302,0.658 0.192,1.001l-2.452,7.702l-0.474,1.471c-0.184,0.425 -0.63,0.709 -1.13,0.71c-2.39,0 -13.847,0.003 -15.854,0.004c-0.336,0 -0.609,0.253 -0.609,0.567l0,13.039c0,0.15 0.064,0.295 0.179,0.401c0.114,0.106 0.269,0.166 0.43,0.166c0,0 7.342,0 10.627,0c0.363,0 0.703,0.173 0.917,0.466c0.213,0.293 0.273,0.671 0.162,1.016c-0.784,2.433 -2.318,7.191 -2.923,9.066Z" style="fill:#fff;"/><path d="M36.555,55.62c0,0.301 -0.119,0.589 -0.332,0.802c-0.212,0.213 -0.501,0.332 -0.802,0.332c-5.852,0 -32.37,0 -32.37,0c-0.809,0.001 -1.585,-0.297 -2.157,-0.829c-0.572,-0.531 -0.894,-1.253 -0.894,-2.006c0,-9.683 0,-41.343 0,-51.019c0,-0.751 0.321,-1.472 0.892,-2.004c0.572,-0.532 1.346,-0.83 2.154,-0.83c6.657,0 27.303,-0.004 32.375,-0.004c0.301,0 0.589,0.119 0.802,0.332c0.213,0.212 0.332,0.501 0.332,0.801c0,2.167 0,6.87 0,9.035c0,0.625 -0.506,1.132 -1.132,1.133c-4.725,0.009 -22.63,0.04 -22.63,0.04c-0.336,0.001 -0.608,0.254 -0.608,0.567c0,1.545 0,5.824 0,7.371c0,0.15 0.064,0.295 0.179,0.401c0.114,0.106 0.269,0.166 0.431,0.166c2.262,-0.001 15.273,-0.003 18.741,-0.004c0.384,0 0.746,0.169 0.976,0.455c0.231,0.287 0.302,0.658 0.192,1.001l-2.452,7.702l-0.474,1.471c-0.185,0.425 -0.63,0.709 -1.13,0.709c-2.39,0.001 -13.847,0.004 -15.854,0.005c-0.336,0 -0.609,0.253 -0.609,0.566l0,13.04c0,0.15 0.064,0.295 0.179,0.401c0.114,0.106 0.269,0.166 0.43,0.166c0,0 17.9,0 22.627,0c0.627,0 1.134,0.508 1.134,1.134c0,2.172 0,6.894 0,9.066Z" style="fill:#fff;"/></g><g id="Layer2"><path d="M43.971,56.754c-0.609,0 -1.102,-0.493 -1.102,-1.102c0,-7.162 0,-47.043 0,-54.418c0,-0.311 0.124,-0.609 0.344,-0.829c0.22,-0.22 0.518,-0.344 0.829,-0.344c2.1,0 6.521,0 9.077,0c1.167,0 2.215,0.716 2.64,1.803c2.034,5.206 7.929,20.29 10.385,26.576c0.1,0.254 0.365,0.402 0.633,0.351c0.268,-0.05 0.462,-0.284 0.462,-0.557l0,-25.338c0,-0.752 0.299,-1.473 0.831,-2.004c0.531,-0.532 1.252,-0.831 2.004,-0.831l8.33,0c0.27,0 0.53,0.108 0.721,0.299c0.192,0.192 0.299,0.451 0.299,0.722c0,6.926 0,46.978 0,54.466c0,0.32 -0.127,0.627 -0.353,0.853c-0.226,0.226 -0.533,0.353 -0.852,0.353c-2.113,0 -6.502,0 -9.044,0c-1.167,0 -2.215,-0.715 -2.64,-1.803c-2.035,-5.206 -7.929,-20.29 -10.386,-26.576c-0.099,-0.254 -0.365,-0.401 -0.633,-0.351c-0.268,0.051 -0.462,0.285 -0.462,0.557l0,25.339c0,0.751 -0.298,1.472 -0.83,2.004c-0.532,0.532 -1.253,0.83 -2.004,0.83l-8.249,0Z" style="fill:#fff;"/></g><g id="Layer3"><path d="M110.327,0.061c-6.974,-0.073 -19.262,-0.063 -23.153,-0.057c-0.672,0.001 -1.217,0.546 -1.217,1.219c0,7.51 0,47.448 0,54.433c0,0.576 0.466,1.044 1.042,1.046c3.65,0.012 16.021,0.052 23.328,0.052c5.744,0 12.185,-5.993 12.185,-11.338l0,-34.016c0,-5.93 -5.813,-11.272 -12.185,-11.339Zm-10.967,11.339c-0.673,0 -1.218,0.508 -1.218,1.134l0,31.748c0,0.626 0.545,1.134 1.218,1.134l9.748,0c0.673,0 1.219,-0.508 1.219,-1.134l0,-31.748c0,-0.626 -0.546,-1.134 -1.219,-1.134l-9.748,0Z" style="fill:#fff;"/></g><g id="Layer31" serif:id="Layer3"><path d="M254.132,0.061c-7.235,0 -12.136,4.449 -12.185,11.339c-0.068,9.685 -0.061,26.937 0,34.016c0.049,5.654 6.109,11.338 12.185,11.338c6.077,0 3.544,0 12.186,0c5.744,0 12.185,-5.993 12.185,-11.338l0,-34.016c0,-5.93 -5.813,-11.272 -12.185,-11.339c-8.364,-0.087 -0.078,0 -12.186,0Zm1.219,11.339c-0.673,0 -1.219,0.508 -1.219,1.134l0,31.748c0,0.626 0.546,1.134 1.219,1.134l9.748,0c0.673,0 1.219,-0.508 1.219,-1.134l0,-31.748c0,-0.626 -0.546,-1.134 -1.219,-1.134l-9.748,0Z" style="fill:#fff;"/></g><g id="Layer32" serif:id="Layer3"></g><g id="Layer33" serif:id="Layer3"><path d="M321.408,45.416c0,5.345 -6.441,11.338 -12.186,11.338c-8.642,0 -6.108,0 -12.185,0c-6.076,0 -12.136,-5.684 -12.185,-11.338c-0.061,-7.079 0,-34.016 0,-34.016c0,0 0,-5.146 0,-8.504c0,-0.752 0.299,-1.473 0.831,-2.004c0.531,-0.532 1.252,-0.831 2.004,-0.831l6.359,0c1.652,0 2.991,1.34 2.991,2.992l0,41.229c0,0.626 0.546,1.134 1.219,1.134l9.748,0c0.673,0 1.218,-0.508 1.218,-1.134l0,-41.386c0,-1.566 1.27,-2.835 2.835,-2.835l8.217,0c0.3,0 0.589,0.12 0.801,0.332c0.213,0.213 0.333,0.501 0.333,0.802c0,7.017 0,44.221 0,44.221Z" style="fill:#fff;"/></g><g id="Layer11" serif:id="Layer1"></g><g id="Layer5"><path d="M158.058,56.754c-0.362,0 -0.703,-0.173 -0.916,-0.466c-0.213,-0.293 -0.274,-0.671 -0.163,-1.016c2.524,-7.827 14.294,-44.336 17.167,-53.246c0.377,-1.171 1.467,-1.965 2.698,-1.965l8.056,0c1.23,0 2.32,0.794 2.698,1.965c2.868,8.896 14.606,45.305 17.154,53.209c0.114,0.354 0.052,0.741 -0.166,1.041c-0.219,0.301 -0.568,0.478 -0.94,0.478c-2.191,0 -6.134,0 -8.541,0c-1.222,0 -2.307,-0.784 -2.691,-1.944c-1.991,-6.022 -8.067,-24.397 -10.51,-31.783c-0.147,-0.446 -0.563,-0.746 -1.032,-0.746c-0.469,0 -0.886,0.3 -1.033,0.746c-2.442,7.386 -8.518,25.761 -10.509,31.783c-0.384,1.16 -1.469,1.944 -2.692,1.944l-8.58,0Z" style="fill:#fff;"/></g><g id="Layer51" serif:id="Layer5"><path d="M194.997,0.061c-0.37,0 -0.719,0.178 -0.937,0.477c-0.218,0.3 -0.28,0.686 -0.166,1.038c2.546,7.897 14.287,44.316 17.156,53.213c0.377,1.171 1.467,1.965 2.697,1.965l8.057,0c1.23,0 2.32,-0.794 2.698,-1.965c2.866,-8.89 14.592,-45.261 17.149,-53.195c0.116,-0.357 0.053,-0.747 -0.168,-1.05c-0.221,-0.303 -0.573,-0.483 -0.948,-0.483l-8.526,0c-1.223,0 -2.308,0.784 -2.691,1.945c-1.992,6.022 -8.068,24.397 -10.51,31.783c-0.147,0.445 -0.563,0.746 -1.032,0.746c-0.47,0 -0.886,-0.301 -1.033,-0.746c-2.442,-7.386 -8.518,-25.761 -10.509,-31.783c-0.384,-1.161 -1.469,-1.945 -2.692,-1.945l-8.545,0Z" style="fill:#fff;"/></g><g id="Layer7"><path d="M330.697,56.754c-0.808,0 -1.582,-0.298 -2.154,-0.83c-0.571,-0.532 -0.892,-1.253 -0.892,-2.004c0,-8.756 0,-45.758 0,-52.725c0,-0.301 0.119,-0.589 0.332,-0.802c0.213,-0.212 0.501,-0.332 0.802,-0.332c4.206,0 18.906,0 23.367,0c2.255,0 4.445,0.704 6.22,1.998c2.615,1.907 5.834,5.109 5.834,9.341c0,3.779 0.058,1.956 0,6.79c-0.128,10.8 -7.349,10.56 -7.349,13.052c0,2.171 7.479,4.664 7.349,8.504c-0.152,4.496 0,10.042 0,14.174c0,0.751 -0.321,1.472 -0.892,2.004c-0.571,0.532 -1.346,0.83 -2.154,0.83l-6.093,0c-0.807,0 -1.582,-0.298 -2.154,-0.83c-0.571,-0.532 -0.892,-1.253 -0.892,-2.004l0,-8.504c0,-2.129 -1.267,-4.332 -3.046,-5.67c-2.177,-1.636 -5.143,-3.81 -6.997,-4.673c-0.459,-0.213 -1.004,-0.19 -1.44,0.061c-0.436,0.251 -0.702,0.694 -0.702,1.171c0,4.148 0,13.046 0,17.615c0,0.751 -0.321,1.472 -0.892,2.004c-0.571,0.532 -1.346,0.83 -2.154,0.83l-6.093,0Zm21.324,-42.519c0,-0.752 -0.321,-1.473 -0.892,-2.005c-0.571,-0.531 -1.346,-0.83 -2.154,-0.83l-7.92,0c-0.673,0 -1.219,0.508 -1.219,1.134l0,9.071c0,0.626 0.546,1.133 1.219,1.133l7.92,0c0.808,0 1.583,-0.298 2.154,-0.83c0.571,-0.531 0.892,-1.252 0.892,-2.004l0,-5.669Z" style="fill:#fff;"/></g></g></svg>